<svg xmlns="http://www.w3.org/2000/svg" xmlns:xlink="http://www.w3.org/1999/xlink" width="70" height="70" viewBox="0 0 70 70">
    <defs>
        <path id="a" d="M0 0h70v70H0z"/>
        <path id="c" d="M3.203 9.207V1.89C3.203.847 4.05 0 5.094 0h22.828c1.045 0 1.892.847 1.892 1.891v7.487a3.284 3.284 0 0 1 1.108-.192c1.974 0 3.573 1.754 3.573 3.918 0 2.163-1.6 3.917-3.573 3.917-.387 0-.76-.067-1.108-.192v1.273a1.9 1.9 0 0 1-.035.363C29.282 25.36 23.53 30.8 16.509 30.8c-7.023 0-12.774-5.44-13.271-12.335a1.9 1.9 0 0 1-.035-.363V17C1.403 16.798 0 15.13 0 13.104c0-2.027 1.404-3.695 3.203-3.897z"/>
        <path id="e" d="M0 .423C5.31 2.345 6.256 2.245 11.479 0l.065.036C9.964 11.615 3.273 13.024.02.593L0 .423z"/>
        <rect id="g" width="4.421" height="2.211" x=".365" y=".442" rx="1.105"/>
    </defs>
    <g fill="none" fill-rule="evenodd">
        <mask id="b" fill="#fff">
            <use xlink:href="#a"/>
        </mask>
        <use fill="#9DABB0" xlink:href="#a"/>
        <g mask="url(#b)">
            <g transform="translate(13.509 5.65)">
                <ellipse cx="19.772" cy="66.807" fill="#3D5A6A" rx="19.772" ry="13.509"/>
                <path fill="#ED926E" d="M16.224 44.579h8.354v12.158c-1.866 1.022-3.266 1.533-4.199 1.533-.933 0-2.318-.511-4.155-1.533V44.579z"/>
                <path fill="#F49D7B" d="M16.224 44.579h3.234v12.716c-.722 1.069-1.264 1.603-1.625 1.603-.362 0-.898-.534-1.609-1.603V44.579z"/>
                <path fill="#FFF" stroke="#FFF" d="M15.832 54.167l-.001.06c0 1.729 2.24 3.473 4.566 3.473 2.263 0 4.498-1.898 4.498-3.684v-.035L24.85 51.3l1.008 2.486c.191.47.29.967.29 1.473 0 2.613-2.597 4.68-5.751 4.68-3.154 0-5.75-2.067-5.75-4.68 0-.433.071-.859.212-1.268l1.069-3.111-.096 3.288z"/>
                <g transform="translate(2.21)">
                    <rect width="5.929" height="14.049" x="29.914" y="14.86" fill="#383838" rx="2.964"/>
                    <rect width="4.312" height="14.86" x="1.078" y="14.86" fill="#383838" rx="2.156"/>
                    <ellipse cx="30.453" cy="15.4" fill="#383838" rx="7.276" ry="7.295"/>
                    <ellipse cx="22.368" cy="15.4" fill="#383838" rx="7.276" ry="7.295"/>
                    <ellipse cx="10.106" cy="12.563" fill="#383838" rx="10.106" ry="10.132"/>
                    <ellipse cx="22.098" cy="10.537" fill="#383838" rx="10.51" ry="10.537"/>
                    <ellipse cx="11.319" cy="7.295" fill="#575757" rx="3.773" ry="3.782"/>
                    <ellipse cx="15.765" cy="7.7" fill="#575757" rx="2.021" ry="2.026"/>
                    <path fill="#383838" d="M2.964 14.86h29.914v4.053H2.964z"/>
                    <rect width="2.964" height="12.158" x="33.274" y="6.214" fill="#383838" rx="1.482"/>
                    <rect width="2.964" height="12.158" x="32.664" y="5.812" fill="#383838" rx="1.482" transform="rotate(60 34.146 11.891)"/>
                    <ellipse cx="33.687" cy="16.481" fill="#575757" rx="1.886" ry="1.891"/>
                    <ellipse cx="33.687" cy="14.319" fill="#575757" rx="1.886" ry="1.891"/>
                    <ellipse cx="31.261" cy="14.049" fill="#575757" rx="1.886" ry="1.891"/>
                    <g transform="translate(1.839 18.372)">
                        <mask id="d" fill="#fff">
                            <use xlink:href="#c"/>
                        </mask>
                        <use fill="#FBA380" xlink:href="#c"/>
                        <ellipse cx="-7.95" cy=".675" fill="#FCB79B" mask="url(#d)" rx="31.126" ry="34.177"/>
                        <path fill="#924E48" d="M20.386 10.807c.543 0 .982.44.982.982v1.474a.982.982 0 0 1-1.965 0V11.79c0-.542.44-.982.983-.982z" mask="url(#d)"/>
                        <rect width="4.421" height="2.211" x="6.386" y="14.737" fill="#FF5F59" mask="url(#d)" rx="1.105" transform="rotate(-10 8.596 15.842)"/>
                        <path fill="#924E48" d="M12.526 10.807c.543 0 .983.44.983.982v1.474a.982.982 0 1 1-1.965 0V11.79c0-.542.44-.982.982-.982z" mask="url(#d)"/>
                        <g mask="url(#d)">
                            <g transform="translate(10.316 16.702)">
                                <mask id="f" fill="#fff">
                                    <use xlink:href="#e"/>
                                </mask>
                                <use fill="#A44C51" xlink:href="#e"/>
                                <ellipse cx="8.054" cy="6.933" fill="#8A3F41" mask="url(#f)" rx="4.564" ry="4.8"/>
                                <ellipse cx="8.322" cy="7.067" fill="#FF5F59" mask="url(#f)" rx="3.758" ry="2.267" transform="rotate(120 8.322 7.067)"/>
                            </g>
                        </g>
                        <path fill="#8A3F41" d="M9.825 9.333c.977-.982 1.711-1.473 2.202-1.473.492 0 1.231.49 2.219 1.473-.976-.524-1.707-.786-2.195-.786-.487 0-1.23.262-2.226.786zM18.175 8.842c.978-.655 1.712-.982 2.203-.982.491 0 1.23.327 2.218.982-.975-.35-1.706-.524-2.194-.524-.487 0-1.23.175-2.227.524z" mask="url(#d)"/>
                    </g>
                    <use fill="#FF5F59" transform="rotate(-10 196.6 -114.435)" xlink:href="#g"/>
                    <ellipse cx="14.148" cy="19.182" fill="#383838" rx="10.645" ry="2.972"/>
                    <ellipse cx="27.893" cy="19.588" fill="#383838" rx="4.986" ry="3.107"/>
                    <ellipse cx="8.085" cy="18.372" fill="#383838" rx="6.468" ry="6.484"/>
                </g>
            </g>
        </g>
    </g>
</svg>
